<svg xmlns="http://www.w3.org/2000/svg" xmlns:xlink="http://www.w3.org/1999/xlink" width="39.25" height="37" viewBox="0 0 39.25 37">
  <metadata><?xpacket begin="﻿" id="W5M0MpCehiHzreSzNTczkc9d"?>
<x:xmpmeta xmlns:x="adobe:ns:meta/" x:xmptk="Adobe XMP Core 5.6-c138 79.159824, 2016/09/14-01:09:01        ">
   <rdf:RDF xmlns:rdf="http://www.w3.org/1999/02/22-rdf-syntax-ns#">
      <rdf:Description rdf:about=""/>
   </rdf:RDF>
</x:xmpmeta>
                                                                                                    
                                                                                                    
                                                                                                    
                                                                                                    
                                                                                                    
                                                                                                    
                                                                                                    
                                                                                                    
                                                                                                    
                                                                                                    
                                                                                                    
                                                                                                    
                                                                                                    
                                                                                                    
                                                                                                    
                                                                                                    
                                                                                                    
                                                                                                    
                                                                                                    
                                                                                                    
                           
<?xpacket end="w"?></metadata>
<defs>
    <style>
      .cls-1 {
        fill-rule: evenodd;
        fill: url(#linear-gradient);
        filter: url(#filter);
      }
    </style>
    <linearGradient id="linear-gradient" x1="2151.625" y1="1820.16" x2="2188.625" y2="1857.16" gradientUnits="userSpaceOnUse">
      <stop offset="0" stop-color="#fff"/>
      <stop offset="1" stop-color="#fff"/>
    </linearGradient>
    <filter id="filter" x="2150.5" y="1820.16" width="39.25" height="37" filterUnits="userSpaceOnUse">
      <feFlood result="flood" flood-color="#ff3b4a"/>
      <feComposite result="composite" operator="in" in2="SourceGraphic"/>
      <feBlend result="blend" in2="SourceGraphic"/>
    </filter>
  </defs>
  <path id="Pencil" class="cls-1" d="M2189.7,1833.07a23.115,23.115,0,0,0-11.72-12.83,0.821,0.821,0,0,0-.93.14l-17.49,15.96-2.01,1.84a0.942,0.942,0,0,0-.27.35,0.185,0.185,0,0,1-.02.07l-4.71,12.21-2,5.22a0.829,0.829,0,0,0,.78,1.13,0.656,0.656,0,0,0,.23-0.04l5.38-1.52,12.65-3.59a0.892,0.892,0,0,0,.23-0.1c0.04-.03.07-0.06,0.11-0.09l2.07-1.88,17.48-15.96A0.843,0.843,0,0,0,2189.7,1833.07Zm-35.92,19.2a1.091,1.091,0,0,0,.11.06,4.51,4.51,0,0,1,.96.77,4.757,4.757,0,0,1,.69,1.03,0.564,0.564,0,0,1,.04.12l-2.87.81Zm15.17-1.81-11.72,3.32c-0.03-.07-0.09-0.13-0.12-0.2a6.319,6.319,0,0,0-1.02-1.6,6.136,6.136,0,0,0-1.51-1.16c-0.07-.04-0.12-0.11-0.18-0.14l4.37-11.35,1.31-1.19,1.06,1.15,9.11,9.98Zm2.53-2.32-2.64-2.89,13.9-12.69a0.842,0.842,0,0,0,.27-0.62,0.811,0.811,0,0,0-.22-0.56,0.837,0.837,0,0,0-1.18-.05l-13.9,12.68-0.54-.6-2.09-2.28,13.9-12.68a0.839,0.839,0,0,0-1.13-1.24l-13.9,12.69-2.64-2.89,16.45-15.02a21.446,21.446,0,0,1,10.17,11.14Z" transform="translate(-2150.5 -1820.16)"/>
</svg>
