<svg xmlns="http://www.w3.org/2000/svg" xmlns:xlink="http://www.w3.org/1999/xlink" width="40.09" height="40.19" viewBox="0 0 40.09 40.19">
  <metadata><?xpacket begin="﻿" id="W5M0MpCehiHzreSzNTczkc9d"?>
<x:xmpmeta xmlns:x="adobe:ns:meta/" x:xmptk="Adobe XMP Core 5.6-c138 79.159824, 2016/09/14-01:09:01        ">
   <rdf:RDF xmlns:rdf="http://www.w3.org/1999/02/22-rdf-syntax-ns#">
      <rdf:Description rdf:about=""/>
   </rdf:RDF>
</x:xmpmeta>
                                                                                                    
                                                                                                    
                                                                                                    
                                                                                                    
                                                                                                    
                                                                                                    
                                                                                                    
                                                                                                    
                                                                                                    
                                                                                                    
                                                                                                    
                                                                                                    
                                                                                                    
                                                                                                    
                                                                                                    
                                                                                                    
                                                                                                    
                                                                                                    
                                                                                                    
                                                                                                    
                           
<?xpacket end="w"?></metadata>
<defs>
    <style>
      .cls-1 {
        fill-rule: evenodd;
        fill: url(#linear-gradient);
        filter: url(#filter);
      }
    </style>
    <linearGradient id="linear-gradient" x1="1869.75" y1="1860.14" x2="1829.66" y2="1820.05" gradientUnits="userSpaceOnUse">
      <stop offset="0" stop-color="#NaNNaNNaN"/>
      <stop offset="1" stop-color="#fff"/>
    </linearGradient>
    <filter id="filter" x="1829.66" y="1820" width="40.09" height="40.19" filterUnits="userSpaceOnUse">
      <feFlood result="flood" flood-color="#ff3b4a"/>
      <feComposite result="composite" operator="in" in2="SourceGraphic"/>
      <feBlend result="blend" in2="SourceGraphic"/>
    </filter>
  </defs>
  <path id="Settings" class="cls-1" d="M1849.71,1845.66a5.565,5.565,0,1,1,5.55-5.57A5.567,5.567,0,0,1,1849.71,1845.66Zm0-9.69a4.12,4.12,0,1,0,4.11,4.12A4.118,4.118,0,0,0,1849.71,1835.97Zm-2.42,24.22a0.724,0.724,0,0,1-.69-0.55l-1.24-4.96a15.8,15.8,0,0,1-2.83-1.2l-4.4,2.65a0.726,0.726,0,0,1-.88-0.11l-3.42-3.43a0.726,0.726,0,0,1-.11-0.88l2.65-4.41a14.321,14.321,0,0,1-1.18-2.84l-4.98-1.24a0.718,0.718,0,0,1-.54-0.7v-4.85a0.7,0.7,0,0,1,.54-0.69l4.95-1.24a16.1,16.1,0,0,1,1.2-2.85l-2.64-4.41a0.724,0.724,0,0,1,.11-0.88l3.41-3.43a0.712,0.712,0,0,1,.88-0.1l4.4,2.64a15.828,15.828,0,0,1,2.83-1.18l1.24-4.99a0.718,0.718,0,0,1,.7-0.54h4.83a0.718,0.718,0,0,1,.7.54l1.23,4.97a15.317,15.317,0,0,1,2.83,1.2l4.41-2.65a0.728,0.728,0,0,1,.88.11l3.41,3.42a0.712,0.712,0,0,1,.11.88l-2.64,4.42a15.784,15.784,0,0,1,1.17,2.83l4.98,1.25a0.727,0.727,0,0,1,.55.7v4.84a0.727,0.727,0,0,1-.55.7l-4.98,1.25a15.2,15.2,0,0,1-1.17,2.83l2.65,4.41a0.741,0.741,0,0,1-.11.89l-3.42,3.43a0.727,0.727,0,0,1-.87.11l-4.41-2.66a15.961,15.961,0,0,1-2.83,1.21l-1.24,4.96a0.715,0.715,0,0,1-.69.55h-4.84Zm-4.78-8.27a0.653,0.653,0,0,1,.36.1,14.172,14.172,0,0,0,3.28,1.39,0.742,0.742,0,0,1,.51.52l1.2,4.82,3.7-.01,1.2-4.81a0.729,0.729,0,0,1,.5-0.52,14.307,14.307,0,0,0,3.28-1.39,0.708,0.708,0,0,1,.73,0l4.28,2.58,2.62-2.64-2.57-4.28a0.751,0.751,0,0,1,0-.74,13.753,13.753,0,0,0,1.35-3.27,0.742,0.742,0,0,1,.52-0.51l4.84-1.21v-3.72l-4.84-1.21a0.742,0.742,0,0,1-.52-0.51,14.176,14.176,0,0,0-1.35-3.28,0.732,0.732,0,0,1,0-.73l2.57-4.29-2.62-2.62-4.28,2.57a0.708,0.708,0,0,1-.73.01,14.057,14.057,0,0,0-3.28-1.39,0.712,0.712,0,0,1-.5-0.52l-1.2-4.82h-3.71l-1.21,4.85a0.712,0.712,0,0,1-.5.52,13.544,13.544,0,0,0-3.27,1.36,0.709,0.709,0,0,1-.73-0.01l-4.28-2.57-2.62,2.63,2.57,4.28a0.751,0.751,0,0,1,0,.74,14.275,14.275,0,0,0-1.38,3.29,0.761,0.761,0,0,1-.52.51l-4.8,1.2v3.71l4.83,1.22a0.725,0.725,0,0,1,.52.51,13.713,13.713,0,0,0,1.36,3.27,0.727,0.727,0,0,1-.01.74l-2.56,4.28,2.62,2.63,4.27-2.57A0.752,0.752,0,0,1,1842.51,1851.92Z" transform="translate(-1829.66 -1820)"/>
</svg>
